<svg xmlns="http://www.w3.org/2000/svg" viewBox="0 0 1600 60" width="100%" height="60">
  <style>
    @keyframes scroll {
      0% { transform: translateX(0px); }
      100% { transform: translateX(-800px); }
    }
    .track {
      animation: scroll 20s linear infinite;
    }
    .icon {
      fill-rule: evenodd;
      clip-rule: evenodd;
    }
  </style>
  <g class="track">
    <g transform="translate(10, 10)">
      <path class="icon" fill="#E34F26" d="M36.7 4.7h-31.9l2.9 32.1 13 3.6 13.1-3.6 2.9-32.1zm-13.3 27.6l-8.7-2.4-.5-6h4.1l.3 3.1 4.8 1.3V5.3h10.3v23l-10.3 4zm10.3-15H23.4v-4h10.3v4z"/>
      <path class="icon" fill="#1572B6" d="M96.7 4.7h-31.9l2.9 32.1 13 3.6 13.1-3.6 2.9-32.1zm-13.3 27.6l-8.7-2.4-.5-6h4.1l.3 3.1 4.8 1.3V5.3h10.3v23l-10.3 4zm10.3-15H83.4v-4h10.3v4z"/>
      <path class="icon" fill="#F7DF1E" d="M120 4.7h40v40h-40z"/>
      <path fill="#000" d="M150.9 35.1c.6 1.1 1.4 1.9 2.7 1.9 1.1 0 1.9-.6 1.9-2.5v-10.7h3.7v10.7c0 4-2.2 5.9-5.5 5.9-2.9 0-4.8-1.5-5.9-3.6l3.1-1.7zm-12.2-.3c.7 1.4 2.1 2.3 3.9 2.3 1.8 0 3-.9 3-2.1 0-1.5-1.2-2-3.2-2.9-2.9-1.2-4.7-2.2-4.7-5.4 0-3 2.3-5.1 5.6-5.1 2.8 0 4.6 1.2 5.6 3.1l-2.9 1.8c-.6-1.1-1.5-1.5-2.7-1.5-1.2 0-2 .7-2 1.6 0 1.2.8 1.7 2.7 2.5 3.2 1.4 5.2 2.5 5.2 5.7 0 3.5-2.8 5.6-6.5 5.6-3.8 0-6.1-1.8-7.2-4.2l3.2-1.4z"/>
      <path class="icon" fill="#3776AB" d="M199.7 5c-5.8 0-7.8.4-8.7 1.3-1.3 1.2-1.3 3.8-1.3 4.8h10.2v1.4H184.6c-1 0-3.6 0-4.5 1.5-1 1.8-.9 4.8-.9 7.1 0 2 0 4.9 1.1 6.3 1.1 1.3 3.2 1.2 4.6 1.2h2.7V25c0-2.6 2.1-4.9 4.8-4.9h9.6c2 0 3.7-1.6 3.7-3.7V10.3c0-1.4-1.1-2.7-2.7-2.7h-3.9zm-4.3 2.9c.7 0 1.4.6 1.4 1.4s-.6 1.4-1.4 1.4-1.4-.6-1.4-1.4.6-1.4 1.4-1.4z"/>
      <path class="icon" fill="#7952B3" d="M240 9.7c0-2.7 2.2-4.9 4.9-4.9h29.9c2.7 0 4.9 2.2 4.9 4.9v29.9c0 2.7-2.2 4.9-4.9 4.9h-29.9c-2.7 0-4.9-2.2-4.9-4.9V9.7zm11.4 5.2v20h8.1c3.6 0 5.9-1.6 5.9-4.4 0-1.9-1.2-3.3-3.2-3.8v-.1c1.6-.5 2.5-1.8 2.5-3.4 0-2.7-2.1-4.3-5.2-4.3h-8.1zm4.4 3.4h3.2c1.4 0 2.3.6 2.3 1.6 0 1-.9 1.6-2.3 1.6h-3.2v-3.2zm0 6.8h3.6c1.6 0 2.6.6 2.6 1.8 0 1.2-1 1.8-2.6 1.8h-3.6V25.1z"/>
      <path class="icon" fill="#02569B" d="M322.3 5l-10.8 10.8 10.8 10.8h9.1l-10.8-10.8L341.4 5z"/>
      <path class="icon" fill="#0175C2" d="M311.5 24.3l8.6 8.7 11.3-11.3h-9.2z"/>
      <path class="icon" fill="#13B9FD" d="M320.1 33l5.4 5.4 5.9-5.4h-9.1z"/>
      <path class="icon" fill="#00758F" d="M367.9 9.6c-4.7.7-8 4-8 8 0 5.1 5.3 7.2 8.6 9.1 3.7 2.1 7.5 4.1 7.5 8.5 0 3.5-2.6 5.3-6.9 5.3-4.6 0-7.9-2.3-8.4-7h-4.3c.6 7.1 6 10.9 12.3 10.9 6.7 0 11-3.4 11-9.3 0-5.8-5.7-7.9-9.2-9.9-3.5-2-6.9-3.8-6.9-7.7 0-2.8 2.3-4.3 5.5-4.3 3.8 0 6.6 1.8 7.1 5.7h4.3c-.5-5.9-5.3-9.7-12.6-9.3z"/>
      <path class="icon" fill="#00D8FF" d="M435.9 18.5c.8 1.7 1.1 3.5.9 5.3-.2 1.8-.9 3.5-2.1 4.9-2.3 2.9-5.9 4.8-9.7 5.6-.6.1-1.2.2-1.8.3l1.6 2.7c.2.4.1 1-.3 1.2-.4.2-1 .1-1.2-.3l-2.4-4c-.6.1-1.3.1-1.9.1s-1.3 0-1.9-.1l-1.3 2.2c-.2.4-.8.6-1.2.3-.4-.2-.6-.8-.3-1.2l1.6-2.7c-.6-.1-1.2-.2-1.8-.3-3.8-.8-7.4-2.7-9.7-5.6-1.1-1.4-1.8-3.1-2.1-4.9-.2-1.8.1-3.6.9-5.3 1.2-2.7 3.5-4.7 6.4-5.9.6-.2 1.1-.4 1.7-.6l-1-1.7c-.2-.4-.1-1 .3-1.2.4-.2 1-.1 1.2.3l1.3 2.2c.6-.1 1.2-.2 1.9-.2.6 0 1.3 0 1.9.1l1.3-2.2c.2-.4.8-.6 1.2-.3.4.2.6.8.3 1.2l-1.6 2.7c.6.1 1.2.2 1.8.3 2.8 1.2 5.1 3.2 6.4 5.9zm-16-2.6c-1.7 0-3 1.3-3 3s1.3 3 3 3 3-1.3 3-3-1.3-3-3-3z"/>
      <path class="icon" fill="#EA2D42" d="M466.2 32.6c1-.3 2.3-.7 3.4-.7 3.5 0 4.6 1.6 3.1 3.7-1.2 1.7-4.5 3.3-9.1 3.3-7 0-10.4-3.2-6.8-5.9 1.1-.8 2.7-1.3 4.5-1.6-2.3-.6-3.7-1.6-3.7-2.9 0-1.8 2.5-3.2 6.5-3.7-1.9-1.2-2.8-2.3-2.8-3.4 0-2.3 3.6-4.8 9.1-6.1l.7 1.3c-4.4 1.1-6.9 2.9-6.9 4.3 0 .7.7 1.5 2.1 2.3 2.8-.7 6-1 9-1 3.9 0 5.7.7 5.7 1.9 0 2.2-5 3.6-12 3.8 2.5.8 3.8 1.9 3.8 3.1-.2 1.6-2.2 3.5-7.1 4.6zm.8 5.1c2.7 0 4.2-.7 4.8-1.5.2-.3.2-.6-.5-.6-.9 0-2.2.2-3.4.6-1.7.4-2.9.7-4.3 1.1 1.2.3 2.4.4 3.4.4z"/>
      <path class="icon" fill="#777BB4" d="M510 7.7c-9.9 0-18.2 3.5-18.2 7.7s8.3 7.7 18.2 7.7 18.2-3.5 18.2-7.7-8.3-7.7-18.2-7.7zm7.8 9.8c-.7 1.4-1.8 2.1-3.5 2.1h-4.3l1.1-4.8h2c1.7 0 2.7.7 2.9 2.1.2.6.1 1.2-.2 1.6z"/>
      <path class="icon" fill="#E44F26" d="M552.2 9.9c0-3.3 2.6-5.9 5.9-5.9h3.7v11.8h-3.7c-3.3 0-5.9-2.6-5.9-5.9z"/>
      <path class="icon" fill="#1ABC9C" d="M552.2 21.7c0-3.3 2.6-5.9 5.9-5.9h3.7v11.8h-3.7c-3.3 0-5.9-2.6-5.9-5.9z"/>
      <path class="icon" fill="#A259FF" d="M552.2 33.5c0-3.3 2.6-5.9 5.9-5.9h3.7v11.8h-3.7c-3.3 0-5.9-2.6-5.9-5.9z"/>
      <path class="icon" fill="#F05032" d="M617.9 22.7l-17.9-17.9c-.9-.9-2.5-.9-3.4 0l-3.1 3.1 4.7 4.7c1-.3 2.2-.1 3 .7.8.8 1.1 2 .7 3l4.7 4.7c1-.3 2.2-.1 3 .7 1.1 1.1 1.1 3 0 4.2s-3 1.1-4.2 0c-.8-.8-1.1-2-.7-3l-4.6-4.6v8.9c.3.2.7.4.8.8.7 1.1.3 2.6-.7 3.4-1.1.8-2.7.4-3.4-.7-.7-1-1-2.4.3-3.3v-8.9c-.9-.8-1.1-2.1-.7-3.1l-4.7-4.7-10.2 10.2c-.9.9-.9 2.5 0 3.4l17.9 17.9c.9.9 2.5.9 3.4 0l17.9-17.9c1-.9 1-2.5 0-3.4z"/>
      <path class="icon" fill="#659AD2" d="M660 4.7h30v30h-30zm15 25c5.5 0 10-4.5 10-10s-4.5-10-10-10-10 4.5-10 10 4.5 10 10 10z"/>
    </g>

    <g transform="translate(810, 10)">
      <path class="icon" fill="#E34F26" d="M36.7 4.7h-31.9l2.9 32.1 13 3.6 13.1-3.6 2.9-32.1zm-13.3 27.6l-8.7-2.4-.5-6h4.1l.3 3.1 4.8 1.3V5.3h10.3v23l-10.3 4zm10.3-15H23.4v-4h10.3v4z"/>
      <path class="icon" fill="#1572B6" d="M96.7 4.7h-31.9l2.9 32.1 13 3.6 13.1-3.6 2.9-32.1zm-13.3 27.6l-8.7-2.4-.5-6h4.1l.3 3.1 4.8 1.3V5.3h10.3v23l-10.3 4zm10.3-15H83.4v-4h10.3v4z"/>
      <path class="icon" fill="#F7DF1E" d="M120 4.7h40v40h-40z"/>
      <path fill="#000" d="M150.9 35.1c.6 1.1 1.4 1.9 2.7 1.9 1.1 0 1.9-.6 1.9-2.5v-10.7h3.7v10.7c0 4-2.2 5.9-5.5 5.9-2.9 0-4.8-1.5-5.9-3.6l3.1-1.7zm-12.2-.3c.7 1.4 2.1 2.3 3.9 2.3 1.8 0 3-.9 3-2.1 0-1.5-1.2-2-3.2-2.9-2.9-1.2-4.7-2.2-4.7-5.4 0-3 2.3-5.1 5.6-5.1 2.8 0 4.6 1.2 5.6 3.1l-2.9 1.8c-.6-1.1-1.5-1.5-2.7-1.5-1.2 0-2 .7-2 1.6 0 1.2.8 1.7 2.7 2.5 3.2 1.4 5.2 2.5 5.2 5.7 0 3.5-2.8 5.6-6.5 5.6-3.8 0-6.1-1.8-7.2-4.2l3.2-1.4z"/>
      <path class="icon" fill="#3776AB" d="M199.7 5c-5.8 0-7.8.4-8.7 1.3-1.3 1.2-1.3 3.8-1.3 4.8h10.2v1.4H184.6c-1 0-3.6 0-4.5 1.5-1 1.8-.9 4.8-.9 7.1 0 2 0 4.9 1.1 6.3 1.1 1.3 3.2 1.2 4.6 1.2h2.7V25c0-2.6 2.1-4.9 4.8-4.9h9.6c2 0 3.7-1.6 3.7-3.7V10.3c0-1.4-1.1-2.7-2.7-2.7h-3.9zm-4.3 2.9c.7 0 1.4.6 1.4 1.4s-.6 1.4-1.4 1.4-1.4-.6-1.4-1.4.6-1.4 1.4-1.4z"/>
      <path class="icon" fill="#7952B3" d="M240 9.7c0-2.7 2.2-4.9 4.9-4.9h29.9c2.7 0 4.9 2.2 4.9 4.9v29.9c0 2.7-2.2 4.9-4.9 4.9h-29.9c-2.7 0-4.9-2.2-4.9-4.9V9.7zm11.4 5.2v20h8.1c3.6 0 5.9-1.6 5.9-4.4 0-1.9-1.2-3.3-3.2-3.8v-.1c1.6-.5 2.5-1.8 2.5-3.4 0-2.7-2.1-4.3-5.2-4.3h-8.1zm4.4 3.4h3.2c1.4 0 2.3.6 2.3 1.6 0 1-.9 1.6-2.3 1.6h-3.2v-3.2zm0 6.8h3.6c1.6 0 2.6.6 2.6 1.8 0 1.2-1 1.8-2.6 1.8h-3.6V25.1z"/>
      <path class="icon" fill="#02569B" d="M322.3 5l-10.8 10.8 10.8 10.8h9.1l-10.8-10.8L341.4 5z"/>
      <path class="icon" fill="#0175C2" d="M311.5 24.3l8.6 8.7 11.3-11.3h-9.2z"/>
      <path class="icon" fill="#13B9FD" d="M320.1 33l5.4 5.4 5.9-5.4h-9.1z"/>
      <path class="icon" fill="#00758F" d="M367.9 9.6c-4.7.7-8 4-8 8 0 5.1 5.3 7.2 8.6 9.1 3.7 2.1 7.5 4.1 7.5 8.5 0 3.5-2.6 5.3-6.9 5.3-4.6 0-7.9-2.3-8.4-7h-4.3c.6 7.1 6 10.9 12.3 10.9 6.7 0 11-3.4 11-9.3 0-5.8-5.7-7.9-9.2-9.9-3.5-2-6.9-3.8-6.9-7.7 0-2.8 2.3-4.3 5.5-4.3 3.8 0 6.6 1.8 7.1 5.7h4.3c-.5-5.9-5.3-9.7-12.6-9.3z"/>
      <path class="icon" fill="#00D8FF" d="M435.9 18.5c.8 1.7 1.1 3.5.9 5.3-.2 1.8-.9 3.5-2.1 4.9-2.3 2.9-5.9 4.8-9.7 5.6-.6.1-1.2.2-1.8.3l1.6 2.7c.2.4.1 1-.3 1.2-.4.2-1 .1-1.2-.3l-2.4-4c-.6.1-1.3.1-1.9.1s-1.3 0-1.9-.1l-1.3 2.2c-.2.4-.8.6-1.2.3-.4-.2-.6-.8-.3-1.2l1.6-2.7c-.6-.1-1.2-.2-1.8-.3-3.8-.8-7.4-2.7-9.7-5.6-1.1-1.4-1.8-3.1-2.1-4.9-.2-1.8.1-3.6.9-5.3 1.2-2.7 3.5-4.7 6.4-5.9.6-.2 1.1-.4 1.7-.6l-1-1.7c-.2-.4-.1-1 .3-1.2.4-.2 1-.1 1.2.3l1.3 2.2c.6-.1 1.2-.2 1.9-.2.6 0 1.3 0 1.9.1l1.3-2.2c.2-.4.8-.6 1.2-.3.4.2.6.8.3 1.2l-1.6 2.7c.6.1 1.2.2 1.8.3 2.8 1.2 5.1 3.2 6.4 5.9zm-16-2.6c-1.7 0-3 1.3-3 3s1.3 3 3 3 3-1.3 3-3-1.3-3-3-3z"/>
      <path class="icon" fill="#EA2D42" d="M466.2 32.6c1-.3 2.3-.7 3.4-.7 3.5 0 4.6 1.6 3.1 3.7-1.2 1.7-4.5 3.3-9.1 3.3-7 0-10.4-3.2-6.8-5.9 1.1-.8 2.7-1.3 4.5-1.6-2.3-.6-3.7-1.6-3.7-2.9 0-1.8 2.5-3.2 6.5-3.7-1.9-1.2-2.8-2.3-2.8-3.4 0-2.3 3.6-4.8 9.1-6.1l.7 1.3c-4.4 1.1-6.9 2.9-6.9 4.3 0 .7.7 1.5 2.1 2.3 2.8-.7 6-1 9-1 3.9 0 5.7.7 5.7 1.9 0 2.2-5 3.6-12 3.8 2.5.8 3.8 1.9 3.8 3.1-.2 1.6-2.2 3.5-7.1 4.6zm.8 5.1c2.7 0 4.2-.7 4.8-1.5.2-.3.2-.6-.5-.6-.9 0-2.2.2-3.4.6-1.7.4-2.9.7-4.3 1.1 1.2.3 2.4.4 3.4.4z"/>
      <path class="icon" fill="#777BB4" d="M510 7.7c-9.9 0-18.2 3.5-18.2 7.7s8.3 7.7 18.2 7.7 18.2-3.5 18.2-7.7-8.3-7.7-18.2-7.7zm7.8 9.8c-.7 1.4-1.8 2.1-3.5 2.1h-4.3l1.1-4.8h2c1.7 0 2.7.7 2.9 2.1.2.6.1 1.2-.2 1.6z"/>
      <path class="icon" fill="#E44F26" d="M552.2 9.9c0-3.3 2.6-5.9 5.9-5.9h3.7v11.8h-3.7c-3.3 0-5.9-2.6-5.9-5.9z"/>
      <path class="icon" fill="#1ABC9C" d="M552.2 21.7c0-3.3 2.6-5.9 5.9-5.9h3.7v11.8h-3.7c-3.3 0-5.9-2.6-5.9-5.9z"/>
      <path class="icon" fill="#A259FF" d="M552.2 33.5c0-3.3 2.6-5.9 5.9-5.9h3.7v11.8h-3.7c-3.3 0-5.9-2.6-5.9-5.9z"/>
      <path class="icon" fill="#F05032" d="M617.9 22.7l-17.9-17.9c-.9-.9-2.5-.9-3.4 0l-3.1 3.1 4.7 4.7c1-.3 2.2-.1 3 .7.8.8 1.1 2 .7 3l4.7 4.7c1-.3 2.2-.1 3 .7 1.1 1.1 1.1 3 0 4.2s-3 1.1-4.2 0c-.8-.8-1.1-2-.7-3l-4.6-4.6v8.9c.3.2.7.4.8.8.7 1.1.3 2.6-.7 3.4-1.1.8-2.7.4-3.4-.7-.7-1-1-2.4.3-3.3v-8.9c-.9-.8-1.1-2.1-.7-3.1l-4.7-4.7-10.2 10.2c-.9.9-.9 2.5 0 3.4l17.9 17.9c.9.9 2.5.9 3.4 0l17.9-17.9c1-.9 1-2.5 0-3.4z"/>
      <path class="icon" fill="#659AD2" d="M660 4.7h30v30h-30zm15 25c5.5 0 10-4.5 10-10s-4.5-10-10-10-10 4.5-10 10 4.5 10 10 10z"/>
    </g>
  </g>
</svg>
