<svg xmlns="http://www.w3.org/2000/svg" viewBox="0 0 760 60" width="100%" height="60">
  <style>
    @keyframes scroll {
      0% { transform: translateX(0px); }
      100% { transform: translateX(-380px); }
    }
    .track {
      animation: scroll 15s linear infinite;
    }
    .icon {
      fill-rule: evenodd;
      clip-rule: evenodd;
    }
  </style>
  <g class="track">
    <g transform="translate(10, 15) scale(0.9)">
      <path class="icon" fill="#E34F26" d="M25 0h-21.9l2 22.1 8.9 2.5 9-2.5 2-22.1zm-9.1 19l-6-.1.6-.7H13.1l-.2-2.1H9.3l-.3-3.1h7v5.9zm0-8.1h-5.2V7.8h5.2v3.1z" transform="translate(0,0)"/>
      <path class="icon" fill="#1572B6" d="M25 0h-21.9l2 22.1 8.9 2.5 9-2.5 2-22.1zm-9.1 19l-6-.1.6-.7H13.1l-.2-2.1H9.3l-.3-3.1h7v5.9zm0-8.1h-5.2V7.8h5.2v3.1z" transform="translate(30,0)"/>
      <path class="icon" fill="#F7DF1E" d="M0 0h25v25H0z" transform="translate(60,0)"/>
      <path fill="#000" d="M19.3 19.4c.4.7.9 1.2 1.7 1.2.7 0 1.2-.4 1.2-1.6v-6.7h2.3v6.7c0 2.5-1.4 3.7-3.4 3.7-1.8 0-3-1-3.7-2.3l1.9-1zm-7.6-.2c.4.9 1.3 1.4 2.4 1.4 1.1 0 1.9-.6 1.9-1.3 0-.9-.7-1.2-2-1.8-1.8-.7-2.9-1.4-2.9-3.4 0-1.9 1.4-3.2 3.5-3.2 1.7 0 2.9.8 3.5 1.9l-1.8 1.1c-.4-.7-.9-.9-1.7-.9-.7 0-1.2.4-1.2 1 0 .7.5 1.1 1.7 1.6 2 .9 3.2 1.6 3.2 3.6 0 2.2-1.7 3.5-4.1 3.5-2.4 0-3.8-1.1-4.5-2.6l2-1z" transform="translate(60,0)"/>
      <path class="icon" fill="#3776AB" d="M12.3 0c-3.6 0-4.9.2-5.4.8-.8.8-.8 2.4-.8 3h6.4v.9H2.8c-.6 0-2.2 0-2.8.9-.6 1.1-.6 3-.6 4.4 0 1.2 0 3.1.7 3.9.7.8 2 .8 2.9.8h1.7v-2.3c0-1.6 1.3-3.1 3-3.1h6c1.2 0 2.3-1 2.3-2.3V3.3c0-.9-.7-1.7-1.7-1.7h-2.4c-.1-.5-.5-.9-.9-.9zm-2.7 1.8c.4 0 .9.4 0.9.9s-.4.9-.9.9-.9-.4-.9-.9.4-.9.9-.9z" transform="translate(90,0)"/>
      <path class="icon" fill="#7952B3" d="M0 4.1C0 2.4 1.4 1 3.1 1h18.8C23.6 1 25 2.4 25 4.1v18.8c0 1.7-1.4 3.1-3.1 3.1H3.1C1.4 26 0 24.6 0 22.9V4.1zm7.1 3.3v12.5h5.1c2.3 0 3.7-1 3.7-2.7 0-1.2-.7-2.1-2-2.4v-.1c1-.3 1.6-1.1 1.6-2.1 0-1.7-1.3-2.7-3.2-2.7H7.1zm2.8 2.1h2c.9 0 1.4.4 1.4 1 0 .6-.5 1-1.4 1h-2v-2zm0 4.2h2.2c1 0 1.6.4 1.6 1.1 0 .7-.6 1.1-1.6 1.1h-2.2v-2.2z" transform="translate(120,0)"/>
      <path class="icon" fill="#02569B" d="M13.9 0L7.2 6.7l6.7 6.8h5.7L12.9 6.7 19.6 0z" transform="translate(150,0)"/>
      <path class="icon" fill="#0175C2" d="M7.2 12.1l5.4 5.4 7-7h-5.7z" transform="translate(150,0)"/>
      <path class="icon" fill="#13B9FD" d="M12.6 17.5l3.4 3.4 3.6-3.4h-5.7z" transform="translate(150,0)"/>
      <path class="icon" fill="#00758F" d="M15 6c-2.9.4-5 2.5-5 5 0 3.2 3.3 4.5 5.4 5.7 2.3 1.3 4.7 2.6 4.7 5.3 0 2.2-1.6 3.3-4.3 3.3-2.9 0-4.9-1.4-5.2-4.4H6.1c.4 4.4 3.8 6.8 7.7 6.8 4.2 0 6.9-2.1 6.9-5.8 0-3.6-3.6-4.9-5.8-6.2-2.2-1.2-4.3-2.4-4.3-4.8 0-1.8 1.4-2.7 3.4-2.7 2.4 0 4.1 1.1 4.4 3.6h2.7c-.3-3.7-3.3-6.1-7.9-5.8z" transform="translate(175,0)"/>
      <path class="icon" fill="#00D8FF" d="M22.4 11.6c.5 1 .7 2.2.6 3.3-.1 1.1-.6 2.2-1.3 3.1-1.4 1.8-3.7 3-6.1 3.5-.4.1-.8.1-1.1.2l1 1.7c.1.3.1.6-.2.8-.3.1-.6.1-.8-.2l-1.5-2.5c-.4.1-.8.1-1.2.1s-.8 0-1.2-.1l-.8 1.4c-.1.3-.5.4-.8.2-.3-.1-.4-.5-.2-.8l1-1.7c-.4-.1-.8-.1-1.1-.2-2.4-.5-4.6-1.7-6.1-3.5-.7-.9-1.1-1.9-1.3-3.1-.1-1.1.1-2.3.6-3.3.8-1.7 2.2-2.9 4-3.7.4-.1.7-.3 1.1-.4l-.6-1.1c-.1-.3-.1-.6.2-.8.3-.1.6-.1.8.2l.8 1.4c.4-.1.8-.1 1.2-.1.4 0 .8 0 1.2.1l.8-1.4c.1-.3.5-.4.8-.2.3.1.4.5.2.8l-1 1.7c.4.1.8.1 1.1.2 1.7.8 3.2 2 4 3.7zm-10-1.6c-1.1 0-1.9.9-1.9 1.9s.9 1.9 1.9 1.9 1.9-.9 1.9-1.9-.9-1.9-1.9-1.9z" transform="translate(205,0)"/>
      <path class="icon" fill="#EA2D42" d="M14 20.4c.6-.2 1.4-.4 2.1-.4 2.2 0 2.9 1 1.9 2.3-.7 1.1-2.8 2.1-5.7 2.1-4.4 0-6.5-2-4.2-3.7.7-.5 1.7-.8 2.8-1-1.4-.4-2.3-1-2.3-1.8 0-1.1 1.6-2 4.1-2.3-1.2-.7-1.7-1.4-1.7-2.1 0-1.4 2.2-3 5.7-3.8l.4.8c-2.7.7-4.3 1.8-4.3 2.7 0 .4.4.9 1.3 1.4 1.7-.4 3.7-.6 5.6-.6 2.4 0 3.6.4 3.6 1.2 0 1.4-3.1 2.2-7.5 2.4 1.6.5 2.4 1.2 2.4 1.9-.1 1-1.4 2.2-4.4 2.9zm.5 3.2c1.7 0 2.6-.4 3-.9.1-.2.1-.4-.3-.4-.6 0-1.4.1-2.1.4-1.1.2-1.8.4-2.7.7.8.2 1.5.2 2.1.2z" transform="translate(235,0)"/>
      <path class="icon" fill="#777BB4" d="M18.8 4.8c-6.2 0-11.4 2.2-11.4 4.8s5.2 4.8 11.4 4.8 11.4-2.2 11.4-4.8-5.2-4.8-11.4-4.8zm4.9 6.1c-.4.9-1.1 1.3-2.2 1.3h-2.7l.7-3h1.3c1.1 0 1.7.4 1.8 1.3.1.4.1.8-.1 1z" transform="translate(260,0)"/>
      <path class="icon" fill="#E44F26" d="M0 6.2C0 4.1 1.6 2.5 3.7 2.5H6v7.4H3.7C1.6 9.9 0 8.3 0 6.2z" transform="translate(295,0)"/>
      <path class="icon" fill="#1ABC9C" d="M0 13.6c0-2.1 1.6-3.7 3.7-3.7H6V17.3H3.7C1.6 17.3 0 15.7 0 13.6z" transform="translate(295,0)"/>
      <path class="icon" fill="#A259FF" d="M0 21c0-2.1 1.6-3.7 3.7-3.7H6v7.4H3.7C1.6 24.7 0 23.1 0 21z" transform="translate(295,0)"/>
      <path class="icon" fill="#F05032" d="M23.7 11.2L12.5.1c-.6-.6-1.6-.6-2.1 0l-1.9 1.9 2.9 2.9c.6-.2 1.4-.1 1.9.4.5.5.7 1.3.4 1.9l2.9 2.9c.6-.2 1.4-.1 1.9.4.7.7.7 1.9 0 2.6s-1.9.7-2.6 0c-.5-.5-.7-1.3-.4-1.9l-2.9-2.9v5.6c.2.1.4.3.5.5.4.7.2 1.6-.4 2.1-.7.5-1.7.3-2.1-.4-.4-.6-.6-1.5.2-2.1V9.7c-.6-.5-.7-1.3-.4-1.9L7.9 4.9 1.5 11.3c-.6.6-.6 1.6 0 2.1l11.2 11.2c.6.6 1.6.6 2.1 0l11.2-11.2c.6-.5.6-1.5-.3-2.2z" transform="translate(320,0)"/>
      <path class="icon" fill="#659AD2" d="M0 0h18.8v18.8H0zm9.4 15.6c3.4 0 6.2-2.8 6.2-6.2s-2.8-6.2-6.2-6.2-6.2 2.8-6.2 6.2 2.8 6.2 6.2 6.2z" transform="translate(350,0)"/>
    </g>

    <g transform="translate(390, 15) scale(0.9)">
      <path class="icon" fill="#E34F26" d="M25 0h-21.9l2 22.1 8.9 2.5 9-2.5 2-22.1zm-9.1 19l-6-.1.6-.7H13.1l-.2-2.1H9.3l-.3-3.1h7v5.9zm0-8.1h-5.2V7.8h5.2v3.1z" transform="translate(0,0)"/>
      <path class="icon" fill="#1572B6" d="M25 0h-21.9l2 22.1 8.9 2.5 9-2.5 2-22.1zm-9.1 19l-6-.1.6-.7H13.1l-.2-2.1H9.3l-.3-3.1h7v5.9zm0-8.1h-5.2V7.8h5.2v3.1z" transform="translate(30,0)"/>
      <path class="icon" fill="#F7DF1E" d="M0 0h25v25H0z" transform="translate(60,0)"/>
      <path fill="#000" d="M19.3 19.4c.4.7.9 1.2 1.7 1.2.7 0 1.2-.4 1.2-1.6v-6.7h2.3v6.7c0 2.5-1.4 3.7-3.4 3.7-1.8 0-3-1-3.7-2.3l1.9-1zm-7.6-.2c.4.9 1.3 1.4 2.4 1.4 1.1 0 1.9-.6 1.9-1.3 0-.9-.7-1.2-2-1.8-1.8-.7-2.9-1.4-2.9-3.4 0-1.9 1.4-3.2 3.5-3.2 1.7 0 2.9.8 3.5 1.9l-1.8 1.1c-.4-.7-.9-.9-1.7-.9-.7 0-1.2.4-1.2 1 0 .7.5 1.1 1.7 1.6 2 .9 3.2 1.6 3.2 3.6 0 2.2-1.7 3.5-4.1 3.5-2.4 0-3.8-1.1-4.5-2.6l2-1z" transform="translate(60,0)"/>
      <path class="icon" fill="#3776AB" d="M12.3 0c-3.6 0-4.9.2-5.4.8-.8.8-.8 2.4-.8 3h6.4v.9H2.8c-.6 0-2.2 0-2.8.9-.6 1.1-.6 3-.6 4.4 0 1.2 0 3.1.7 3.9.7.8 2 .8 2.9.8h1.7v-2.3c0-1.6 1.3-3.1 3-3.1h6c1.2 0 2.3-1 2.3-2.3V3.3c0-.9-.7-1.7-1.7-1.7h-2.4c-.1-.5-.5-.9-.9-.9zm-2.7 1.8c.4 0 .9.4 0.9.9s-.4.9-.9.9-.9-.4-.9-.9.4-.9.9-.9z" transform="translate(90,0)"/>
      <path class="icon" fill="#7952B3" d="M0 4.1C0 2.4 1.4 1 3.1 1h18.8C23.6 1 25 2.4 25 4.1v18.8c0 1.7-1.4 3.1-3.1 3.1H3.1C1.4 26 0 24.6 0 22.9V4.1zm7.1 3.3v12.5h5.1c2.3 0 3.7-1 3.7-2.7 0-1.2-.7-2.1-2-2.4v-.1c1-.3 1.6-1.1 1.6-2.1 0-1.7-1.3-2.7-3.2-2.7H7.1zm2.8 2.1h2c.9 0 1.4.4 1.4 1 0 .6-.5 1-1.4 1h-2v-2zm0 4.2h2.2c1 0 1.6.4 1.6 1.1 0 .7-.6 1.1-1.6 1.1h-2.2v-2.2z" transform="translate(120,0)"/>
      <path class="icon" fill="#02569B" d="M13.9 0L7.2 6.7l6.7 6.8h5.7L12.9 6.7 19.6 0z" transform="translate(150,0)"/>
      <path class="icon" fill="#0175C2" d="M7.2 12.1l5.4 5.4 7-7h-5.7z" transform="translate(150,0)"/>
      <path class="icon" fill="#13B9FD" d="M12.6 17.5l3.4 3.4 3.6-3.4h-5.7z" transform="translate(150,0)"/>
      <path class="icon" fill="#00758F" d="M15 6c-2.9.4-5 2.5-5 5 0 3.2 3.3 4.5 5.4 5.7 2.3 1.3 4.7 2.6 4.7 5.3 0 2.2-1.6 3.3-4.3 3.3-2.9 0-4.9-1.4-5.2-4.4H6.1c.4 4.4 3.8 6.8 7.7 6.8 4.2 0 6.9-2.1 6.9-5.8 0-3.6-3.6-4.9-5.8-6.2-2.2-1.2-4.3-2.4-4.3-4.8 0-1.8 1.4-2.7 3.4-2.7 2.4 0 4.1 1.1 4.4 3.6h2.7c-.3-3.7-3.3-6.1-7.9-5.8z" transform="translate(175,0)"/>
      <path class="icon" fill="#00D8FF" d="M22.4 11.6c.5 1 .7 2.2.6 3.3-.1 1.1-.6 2.2-1.3 3.1-1.4 1.8-3.7 3-6.1 3.5-.4.1-.8.1-1.1.2l1 1.7c.1.3.1.6-.2.8-.3.1-.6.1-.8-.2l-1.5-2.5c-.4.1-.8.1-1.2.1s-.8 0-1.2-.1l-.8 1.4c-.1.3-.5.4-.8.2-.3-.1-.4-.5-.2-.8l1-1.7c-.4-.1-.8-.1-1.1-.2-2.4-.5-4.6-1.7-6.1-3.5-.7-.9-1.1-1.9-1.3-3.1-.1-1.1.1-2.3.6-3.3.8-1.7 2.2-2.9 4-3.7.4-.1.7-.3 1.1-.4l-.6-1.1c-.1-.3-.1-.6.2-.8.3-.1.6-.1.8.2l.8 1.4c.4-.1.8-.1 1.2-.1.4 0 .8 0 1.2.1l.8-1.4c.1-.3.5-.4.8-.2.3.1.4.5.2.8l-1 1.7c-.4.1-.8.1 1.1.2 1.7.8 3.2 2 4 3.7zm-10-1.6c-1.1 0-1.9.9-1.9 1.9s.9 1.9 1.9 1.9 1.9-.9 1.9-1.9-.9-1.9-1.9-1.9z" transform="translate(205,0)"/>
      <path class="icon" fill="#EA2D42" d="M14 20.4c.6-.2 1.4-.4 2.1-.4 2.2 0 2.9 1 1.9 2.3-.7 1.1-2.8 2.1-5.7 2.1-4.4 0-6.5-2-4.2-3.7.7-.5 1.7-.8 2.8-1-1.4-.4-2.3-1-2.3-1.8 0-1.1 1.6-2 4.1-2.3-1.2-.7-1.7-1.4-1.7-2.1 0-1.4 2.2-3 5.7-3.8l.4.8c-2.7.7-4.3 1.8-4.3 2.7 0 .4.4.9 1.3 1.4 1.7-.4 3.7-.6 5.6-.6 2.4 0 3.6.4 3.6 1.2 0 1.4-3.1 2.2-7.5 2.4 1.6.5 2.4 1.2 2.4 1.9-.1 1-1.4 2.2-4.4 2.9zm.5 3.2c1.7 0 2.6-.4 3-.9.1-.2.1-.4-.3-.4-.6 0-1.4.1-2.1.4-1.1.2-1.8.4-2.7.7.8.2 1.5.2 2.1.2z" transform="translate(235,0)"/>
      <path class="icon" fill="#777BB4" d="M18.8 4.8c-6.2 0-11.4 2.2-11.4 4.8s5.2 4.8 11.4 4.8 11.4-2.2 11.4-4.8-5.2-4.8-11.4-4.8zm4.9 6.1c-.4.9-1.1 1.3-2.2 1.3h-2.7l.7-3h1.3c1.1 0 1.7.4 1.8 1.3.1.4.1.8-.1 1z" transform="translate(260,0)"/>
      <path class="icon" fill="#E44F26" d="M0 6.2C0 4.1 1.6 2.5 3.7 2.5H6v7.4H3.7C1.6 9.9 0 8.3 0 6.2z" transform="translate(295,0)"/>
      <path class="icon" fill="#1ABC9C" d="M0 13.6c0-2.1 1.6-3.7 3.7-3.7H6V17.3H3.7C1.6 17.3 0 15.7 0 13.6z" transform="translate(295,0)"/>
      <path class="icon" fill="#A259FF" d="M0 21c0-2.1 1.6-3.7 3.7-3.7H6v7.4H3.7C1.6 24.7 0 23.1 0 21z" transform="translate(295,0)"/>
      <path class="icon" fill="#F05032" d="M23.7 11.2L12.5.1c-.6-.6-1.6-.6-2.1 0l-1.9 1.9 2.9 2.9c.6-.2 1.4-.1 1.9.4.5.5.7 1.3.4 1.9l2.9 2.9c.6-.2 1.4-.1 1.9.4.7.7.7 1.9 0 2.6s-1.9.7-2.6 0c-.5-.5-.7-1.3-.4-1.9l-2.9-2.9v5.6c.2.1.4.3.5.5.4.7.2 1.6-.4 2.1-.7.5-1.7.3-2.1-.4-.4-.6-.6-1.5.2-2.1V9.7c-.6-.5-.7-1.3-.4-1.9L7.9 4.9 1.5 11.3c-.6.6-.6 1.6 0 2.1l11.2 11.2c.6.6 1.6.6 2.1 0l11.2-11.2c.6-.5.6-1.5-.3-2.2z" transform="translate(320,0)"/>
      <path class="icon" fill="#659AD2" d="M0 0h18.8v18.8H0zm9.4 15.6c3.4 0 6.2-2.8 6.2-6.2s-2.8-6.2-6.2-6.2-6.2 2.8-6.2 6.2 2.8 6.2 6.2 6.2z" transform="translate(350,0)"/>
    </g>
  </g>
</svg>
